<svg width="15" height="14" viewBox="0 0 15 14" fill="none" xmlns="http://www.w3.org/2000/svg">
<path d="M8.34827 12.9066C8.66077 12.5941 8.62952 12.1253 8.34827 11.8128L4.56702 8.2503L13.5358 8.2503C13.9733 8.2503 14.2858 7.90655 14.2858 7.5003V6.5003C14.2858 6.0628 13.9733 5.7503 13.5358 5.7503L4.56702 5.7503L8.34827 2.15655C8.62952 1.84405 8.62952 1.3753 8.34827 1.0628L7.66077 0.375303C7.34827 0.0940533 6.87952 0.0940533 6.59827 0.375303L0.504515 6.46905C0.223265 6.7503 0.223265 7.21905 0.504515 7.53155L6.59827 13.5941C6.87952 13.8753 7.34827 13.8753 7.66077 13.5941L8.34827 12.9066Z" fill="white"/>
</svg>
